HIERARCHY
ROOT hips
{
	OFFSET -0.003675 0.299928 -0.021708
	CHANNELS 6 Xposition Yposition Zposition Xrotation Yrotation Zrotation
	JOINT LowerBack
	{
		OFFSET 0.000919 0.177588 0.009275
		CHANNELS 3 Xrotation Yrotation Zrotation
		JOINT spine
		{
			OFFSET 0.000919 0.177588 0.009275
			CHANNELS 3 Xrotation Yrotation Zrotation
			JOINT chest
			{
				OFFSET 0.000456 0.100015 0.004638
				CHANNELS 3 Xrotation Yrotation Zrotation
				JOINT neck
				{
					OFFSET 0.000456 0.100015 0.004638
					CHANNELS 3 Xrotation Yrotation Zrotation
					JOINT head
					{
						OFFSET 0.000924 0.155147 0.009274
						CHANNELS 6 Xposition Yposition Zposition Xrotation Yrotation Zrotation
						End Site
						{
							OFFSET 0.000000 0.153400 0.000000
						}
					}
				}
				JOINT shoulder.L
				{
					OFFSET 0.019937 0.078966 0.057518
					CHANNELS 6 Xposition Yposition Zposition Yrotation Xrotation Zrotation
					JOINT upper_arm.L
					{
						OFFSET 0.177024 -0.020465 -0.095062
						CHANNELS 6 Xposition Yposition Zposition Xrotation Yrotation Zrotation
						JOINT forearm.L
						{
							OFFSET 0.247100 -0.135500 -0.061800
							CHANNELS 3 Xrotation Yrotation Zrotation
							JOINT hand.L
							{
								OFFSET 0.217000 -0.143000 0.039300
								CHANNELS 3 Xrotation Yrotation Zrotation
								JOINT palm.01.L
								{
									OFFSET 0.021770 -0.038291 0.012954
									CHANNELS 6 Xposition Yposition Zposition Yrotation Xrotation Zrotation
									JOINT f_index.01.L
									{
										OFFSET 0.053215 -0.044137 0.008236
										CHANNELS 3 Xrotation Yrotation Zrotation
										JOINT f_index.02.L
										{
											OFFSET 0.036108 -0.024723 -0.010656
											CHANNELS 3 Xrotation Yrotation Zrotation
											JOINT f_index.03.L
											{
												OFFSET 0.021342 -0.014948 -0.010846
												CHANNELS 3 Xrotation Yrotation Zrotation
												End Site
												{
													OFFSET 0.015600 -0.009860 -0.013421
												}
											}
										}
									}
									JOINT thumb.01.L
									{
										OFFSET -0.009090 -0.002348 -0.024223
										CHANNELS 6 Xposition Yposition Zposition Xrotation Yrotation Zrotation
										JOINT thumb.02.L
										{
											OFFSET 0.019713 -0.035076 -0.011120
											CHANNELS 3 Xrotation Yrotation Zrotation
											JOINT thumb.03.L
											{
												OFFSET 0.024877 -0.021748 -0.005176
												CHANNELS 3 Xrotation Yrotation Zrotation
												End Site
												{
													OFFSET 0.016125 -0.013029 -0.001569
												}
											}
										}
									}
								}
								JOINT palm.02.L
								{
									OFFSET 0.032823 -0.025104 0.012281
									CHANNELS 6 Xposition Yposition Zposition Yrotation Xrotation Zrotation
									JOINT f_middle.01.L
									{
										OFFSET 0.055723 -0.038469 0.008037
										CHANNELS 3 Xrotation Yrotation Zrotation
										JOINT f_middle.02.L
										{
											OFFSET 0.038167 -0.027473 -0.015582
											CHANNELS 3 Xrotation Yrotation Zrotation
											JOINT f_middle.03.L
											{
												OFFSET 0.021707 -0.016587 -0.017037
												CHANNELS 3 Xrotation Yrotation Zrotation
												End Site
												{
													OFFSET 0.014112 -0.010584 -0.014294
												}
											}
										}
									}
								}
								JOINT palm.03.L
								{
									OFFSET 0.039230 -0.011402 0.008390
									CHANNELS 6 Xposition Yposition Zposition Yrotation Xrotation Zrotation
									JOINT f_ring.01.L
									{
										OFFSET 0.061796 -0.031470 0.007910
										CHANNELS 3 Xrotation Yrotation Zrotation
										JOINT f_ring.02.L
										{
											OFFSET 0.033092 -0.023401 -0.019127
											CHANNELS 3 Xrotation Yrotation Zrotation
											JOINT f_ring.03.L
											{
												OFFSET 0.021392 -0.015362 -0.017824
												CHANNELS 3 Xrotation Yrotation Zrotation
												End Site
												{
													OFFSET 0.008670 -0.007297 -0.014686
												}
											}
										}
									}
								}
								JOINT palm.04.L
								{
									OFFSET 0.043417 0.002450 0.002889
									CHANNELS 6 Xposition Yposition Zposition Yrotation Xrotation Zrotation
									JOINT f_pinky.01.L
									{
										OFFSET 0.069986 -0.026156 0.003627
										CHANNELS 3 Xrotation Yrotation Zrotation
										JOINT f_pinky.02.L
										{
											OFFSET 0.018520 -0.012813 -0.016429
											CHANNELS 3 Xrotation Yrotation Zrotation
											JOINT f_pinky.03.L
											{
												OFFSET 0.013822 -0.009796 -0.014947
												CHANNELS 3 Xrotation Yrotation Zrotation
												End Site
												{
													OFFSET 0.007238 -0.006103 -0.011657
												}
											}
										}
									}
								}
							}
						}
					}
				}
				JOINT shoulder.R
				{
					OFFSET -0.016662 0.078957 0.057696
					CHANNELS 6 Xposition Yposition Zposition Yrotation Xrotation Zrotation
					JOINT upper_arm.R
					{
						OFFSET -0.176972 -0.020537 -0.095144
						CHANNELS 6 Xposition Yposition Zposition Xrotation Yrotation Zrotation
						JOINT forearm.R
						{
							OFFSET -0.247100 -0.135500 -0.061800
							CHANNELS 3 Xrotation Yrotation Zrotation
							JOINT hand.R
							{
								OFFSET -0.217000 -0.143000 0.039300
								CHANNELS 3 Xrotation Yrotation Zrotation
								JOINT palm.01.R
								{
									OFFSET -0.021773 -0.038278 0.012988
									CHANNELS 6 Xposition Yposition Zposition Yrotation Xrotation Zrotation
									JOINT f_index.01.R
									{
										OFFSET -0.053212 -0.044139 0.008249
										CHANNELS 3 Xrotation Yrotation Zrotation
										JOINT f_index.02.R
										{
											OFFSET -0.036049 -0.024835 -0.010634
											CHANNELS 3 Xrotation Yrotation Zrotation
											JOINT f_index.03.R
											{
												OFFSET -0.021371 -0.014881 -0.010866
												CHANNELS 3 Xrotation Yrotation Zrotation
												End Site
												{
													OFFSET -0.015584 -0.009883 -0.013422
												}
											}
										}
									}
									JOINT thumb.01.R
									{
										OFFSET 0.009113 -0.002381 -0.024211
										CHANNELS 6 Xposition Yposition Zposition Xrotation Yrotation Zrotation
										JOINT thumb.02.R
										{
											OFFSET -0.019694 -0.035097 -0.011088
											CHANNELS 3 Xrotation Yrotation Zrotation
											JOINT thumb.03.R
											{
												OFFSET -0.024867 -0.021762 -0.005168
												CHANNELS 3 Xrotation Yrotation Zrotation
												End Site
												{
													OFFSET -0.016120 -0.013036 -0.001565
												}
											}
										}
									}
								}
								JOINT palm.02.R
								{
									OFFSET -0.032828 -0.025095 0.012286
									CHANNELS 6 Xposition Yposition Zposition Yrotation Xrotation Zrotation
									JOINT f_middle.01.R
									{
										OFFSET -0.055721 -0.038472 0.008040
										CHANNELS 3 Xrotation Yrotation Zrotation
										JOINT f_middle.02.R
										{
											OFFSET -0.038101 -0.027593 -0.015557
											CHANNELS 3 Xrotation Yrotation Zrotation
											JOINT f_middle.03.R
											{
												OFFSET -0.021730 -0.016530 -0.017054
												CHANNELS 3 Xrotation Yrotation Zrotation
												End Site
												{
													OFFSET -0.014096 -0.010608 -0.014293
												}
											}
										}
									}
								}
								JOINT palm.03.R
								{
									OFFSET -0.039192 -0.011488 0.008390
									CHANNELS 6 Xposition Yposition Zposition Yrotation Xrotation Zrotation
									JOINT f_ring.01.R
									{
										OFFSET -0.061839 -0.031387 0.007876
										CHANNELS 3 Xrotation Yrotation Zrotation
										JOINT f_ring.02.R
										{
											OFFSET -0.033068 -0.023437 -0.019125
											CHANNELS 3 Xrotation Yrotation Zrotation
											JOINT f_ring.03.R
											{
												OFFSET -0.021371 -0.015393 -0.017822
												CHANNELS 3 Xrotation Yrotation Zrotation
												End Site
												{
													OFFSET -0.008654 -0.007321 -0.014684
												}
											}
										}
									}
								}
								JOINT palm.04.R
								{
									OFFSET -0.043421 0.002443 0.002845
									CHANNELS 6 Xposition Yposition Zposition Yrotation Xrotation Zrotation
									JOINT f_pinky.01.R
									{
										OFFSET -0.069983 -0.026169 0.003599
										CHANNELS 3 Xrotation Yrotation Zrotation
										JOINT f_pinky.02.R
										{
											OFFSET -0.018501 -0.012842 -0.016428
											CHANNELS 3 Xrotation Yrotation Zrotation
											JOINT f_pinky.03.R
											{
												OFFSET -0.013806 -0.009821 -0.014946
												CHANNELS 3 Xrotation Yrotation Zrotation
												End Site
												{
													OFFSET -0.007226 -0.006121 -0.011655
												}
											}
										}
									}
								}
							}
						}
					}
				}
			}
		}
	}
	JOINT pelvis.L
	{
		OFFSET 0.000000 0.000000 0.000000
		CHANNELS 6 Xposition Yposition Zposition Xrotation Yrotation Zrotation
		JOINT thigh.L
		{
			OFFSET 0.101675 0.001054 -0.000000
			CHANNELS 3 Xrotation Yrotation Zrotation
			JOINT shin.L
			{
				OFFSET 0.000000 -0.534800 0.041000
				CHANNELS 3 Xrotation Yrotation Zrotation
				JOINT foot.L
				{
					OFFSET 0.000000 -0.452000 -0.044800
					CHANNELS 3 Xrotation Yrotation Zrotation
					JOINT toe.L
					{
						OFFSET -0.000000 -0.068500 0.109600
						CHANNELS 3 Xrotation Yrotation Zrotation
						End Site
						{
							OFFSET -0.000000 0.000000 0.067200
						}
					}
				}
				JOINT heel.L
				{
					OFFSET 0.000000 -0.452000 -0.044800
					CHANNELS 3 Xrotation Yrotation Zrotation
					JOINT heel.02.L
					{
						OFFSET -0.038000 -0.085200 0.016200
						CHANNELS 6 Xposition Yposition Zposition Xrotation Yrotation Zrotation
						End Site
						{
							OFFSET 0.080000 -0.000000 0.000000
						}
					}
				}
			}
		}
	}
	JOINT pelvis.R
	{
		OFFSET 0.000000 0.000000 0.000000
		CHANNELS 6 Xposition Yposition Zposition Xrotation Yrotation Zrotation
		JOINT thigh.R
		{
			OFFSET -0.094325 0.001054 0.000000
			CHANNELS 3 Xrotation Yrotation Zrotation
			JOINT shin.R
			{
				OFFSET 0.000000 -0.534800 0.041000
				CHANNELS 3 Xrotation Yrotation Zrotation
				JOINT foot.R
				{
					OFFSET 0.000000 -0.452000 -0.044800
					CHANNELS 3 Xrotation Yrotation Zrotation
					JOINT toe.R
					{
						OFFSET -0.000000 -0.068500 0.109600
						CHANNELS 3 Xrotation Yrotation Zrotation
						End Site
						{
							OFFSET -0.000000 0.000000 0.067200
						}
					}
				}
				JOINT heel.R
				{
					OFFSET 0.000000 -0.452000 -0.044800
					CHANNELS 3 Xrotation Yrotation Zrotation
					JOINT heel.02.R
					{
						OFFSET 0.038000 -0.085200 0.016200
						CHANNELS 6 Xposition Yposition Zposition Xrotation Yrotation Zrotation
						End Site
						{
							OFFSET -0.080000 0.000000 -0.000000
						}
					}
				}
			}
		}
	}
}
MOTION
Frames: 4
Frame Time: 0.041667
-0.005930 0.216928 0.003399 6.371851 2.270360 85.415702 -0.000000 0.000000 0.000000 -0.000000 0.000000 -0.000000 -0.000000 -0.000001 -0.000001 -0.000000 0.000000 -0.000001 0.000924 0.155148 0.009274 -16.336583 0.038019 -21.423956 0.019937 0.078966 0.057518 -6.135385 6.483111 48.536970 0.177024 -0.020465 -0.095062 -30.429367 -23.236631 -9.696035 -0.028821 9.211991 60.656540 -0.000001 0.000001 -0.000001 0.021770 -0.038291 0.012954 0.000000 -0.000000 -0.000002 -0.000003 -0.000000 0.000001 -0.000006 0.000003 0.000005 0.000003 0.000002 -0.000003 -0.009090 -0.002348 -0.024223 -0.000003 -0.000002 0.000003 0.000001 0.000000 0.000001 0.000003 -0.000001 -0.000002 0.032823 -0.025104 0.012281 0.000001 -0.000001 0.000007 -0.000001 0.000003 -0.000005 -0.000003 -0.000001 0.000003 0.000003 -0.000002 0.000006 0.039230 -0.011402 0.008390 0.000000 0.000001 0.000004 -0.000001 -0.000001 0.000003 0.000002 0.000001 0.000003 0.000001 0.000001 0.000002 0.043417 0.002450 0.002889 -0.000001 -0.000001 -0.000002 -0.000004 -0.000004 0.000003 -0.000003 0.000001 0.000001 0.000002 0.000000 -0.000001 -0.016662 0.078957 0.057696 -6.571302 5.692952 -38.576321 -0.176972 -0.020537 -0.095144 -28.281626 8.989746 20.898299 15.319626 17.179857 -71.192394 -0.000001 0.000004 0.000003 -0.021773 -0.038278 0.012988 -0.000001 -0.000003 0.000002 -0.000003 0.000004 0.000001 -0.000001 -0.000000 -0.000004 -0.000004 0.000002 0.000003 0.009114 -0.002381 -0.024211 -0.000001 0.000001 0.000001 0.000000 -0.000001 0.000000 -0.000002 0.000003 -0.000004 -0.032828 -0.025095 0.012286 -0.000000 0.000004 -0.000001 -0.000001 0.000000 -0.000001 0.000001 0.000001 0.000001 -0.000006 0.000004 0.000002 -0.039192 -0.011488 0.008390 0.000001 0.000001 0.000003 0.000002 0.000002 -0.000003 0.000005 -0.000003 0.000003 0.000001 0.000000 -0.000001 -0.043421 0.002443 0.002845 -0.000000 -0.000002 0.000004 -0.000004 0.000001 0.000001 -0.000003 0.000003 0.000003 -0.000000 -0.000000 0.000002 0.000000 0.000000 -0.000000 -1.798292 0.087267 -2.035588 43.521501 -0.094005 -3.283802 22.772177 0.153129 -1.543081 0.000002 -0.000000 -0.000000 -0.000005 0.000000 -0.000001 0.000003 -0.000000 0.000000 -0.038000 -0.085200 0.016200 0.000000 -0.000000 -0.000001 0.000000 -0.000000 -0.000000 -1.756864 0.086229 -0.801473 33.024156 0.168742 4.126214 35.182431 0.852796 -8.636659 -0.000003 0.000000 0.000000 0.000003 0.000001 0.000000 0.000003 0.000001 0.000000 0.038000 -0.085200 0.016200 -0.000000 -0.000000 -0.000000 
-0.006485 0.216338 0.003413 5.243561 1.851543 85.734099 -0.000000 -0.000001 -0.000000 -0.000001 -0.000000 0.000000 0.000000 -0.000000 -0.000001 -0.000000 0.000000 0.000000 0.000924 0.155148 0.009274 -16.780706 0.041730 -20.609531 0.019937 0.078966 0.057518 -6.918677 6.362278 48.819252 0.177025 -0.020465 -0.095062 -27.384296 -26.332000 -5.002310 -2.476033 14.758936 59.314189 0.000001 -0.000001 -0.000000 0.021770 -0.038291 0.012954 -0.000001 0.000001 0.000001 -0.000001 0.000003 -0.000000 0.000001 -0.000000 0.000005 -0.000000 0.000003 -0.000002 -0.009090 -0.002348 -0.024224 0.000000 0.000003 -0.000004 0.000001 -0.000001 -0.000002 -0.000005 0.000002 -0.000001 0.032823 -0.025104 0.012281 -0.000001 -0.000004 0.000007 0.000004 0.000001 -0.000003 -0.000005 -0.000004 -0.000000 -0.000001 0.000004 -0.000000 0.039230 -0.011402 0.008390 -0.000000 -0.000000 0.000008 -0.000000 0.000000 -0.000000 0.000003 0.000002 0.000003 0.000004 -0.000003 0.000005 0.043417 0.002450 0.002889 -0.000001 -0.000003 0.000004 0.000004 -0.000006 -0.000000 0.000000 0.000003 -0.000000 -0.000001 0.000001 -0.000001 -0.016662 0.078957 0.057696 -6.773979 5.557062 -38.487809 -0.176972 -0.020537 -0.095144 -27.113915 8.683681 20.074086 17.776242 18.343550 -74.177835 -0.000003 -0.000001 0.000002 -0.021773 -0.038278 0.012988 -0.000001 0.000001 0.000000 0.000000 0.000004 -0.000001 -0.000004 0.000003 -0.000004 -0.000001 0.000002 -0.000001 0.009113 -0.002381 -0.024212 0.000000 0.000000 0.000001 -0.000000 -0.000000 -0.000003 0.000001 0.000001 -0.000004 -0.032828 -0.025095 0.012286 0.000000 0.000001 -0.000004 0.000004 0.000002 0.000004 0.000002 0.000001 0.000001 -0.000005 0.000003 -0.000002 -0.039192 -0.011488 0.008390 0.000002 0.000002 -0.000000 -0.000000 0.000000 -0.000003 -0.000001 -0.000004 -0.000000 0.000001 0.000000 -0.000003 -0.043421 0.002443 0.002845 0.000000 0.000004 -0.000001 -0.000001 0.000004 -0.000002 0.000003 0.000000 0.000002 -0.000005 -0.000003 -0.000002 0.000000 0.000000 -0.000000 -1.825292 0.014845 -1.168105 43.532364 -0.043287 -2.627640 20.651538 0.179967 -1.814027 -0.000003 -0.000002 -0.000001 -0.000001 0.000000 -0.000000 0.000002 -0.000001 -0.000001 -0.038000 -0.085200 0.016200 -0.000001 -0.000000 0.000000 0.000000 0.000000 -0.000000 -1.785640 0.014450 0.066065 32.294733 0.169359 4.092316 34.085765 0.789573 -7.991943 0.000000 -0.000000 -0.000000 0.000001 0.000000 -0.000000 0.000005 -0.000000 -0.000000 0.038000 -0.085200 0.016200 0.000001 -0.000000 -0.000000 
-0.007283 0.218239 0.003405 -3.507554 5.792296 88.320131 -0.000001 0.000000 -0.000000 -0.000001 0.000000 -0.000000 -0.000000 -0.000000 0.000000 -0.000000 -0.000000 0.000000 0.000924 0.155147 0.009274 -17.988545 0.057558 -13.968541 0.019937 0.078966 0.057518 -11.491013 6.759086 51.836321 0.177024 -0.020466 -0.095062 -15.667728 -20.250573 4.350222 -1.143145 14.914504 48.669175 0.000004 -0.000000 0.000003 0.021770 -0.038291 0.012954 0.000001 0.000000 -0.000002 0.000004 -0.000003 -0.000001 -0.000000 0.000001 0.000005 -0.000000 0.000005 -0.000002 -0.009090 -0.002348 -0.024224 0.000003 -0.000003 -0.000003 0.000002 -0.000000 -0.000001 -0.000003 -0.000002 0.000006 0.032823 -0.025104 0.012281 -0.000001 -0.000001 0.000005 -0.000004 0.000003 -0.000003 -0.000004 -0.000003 0.000001 0.000004 0.000002 0.000004 0.039230 -0.011402 0.008390 0.000001 -0.000003 0.000003 -0.000003 0.000005 -0.000002 -0.000001 0.000003 -0.000001 -0.000001 -0.000005 0.000002 0.043417 0.002450 0.002889 -0.000000 -0.000005 -0.000003 -0.000002 -0.000001 -0.000000 -0.000002 0.000004 -0.000001 -0.000002 0.000002 -0.000003 -0.016662 0.078956 0.057696 -15.191946 6.550488 -36.878466 -0.176972 -0.020537 -0.095144 -18.445098 13.742332 5.063387 4.049619 3.639681 -57.328899 -0.000002 0.000005 0.000005 -0.021773 -0.038278 0.012988 0.000000 -0.000000 -0.000003 0.000000 0.000001 -0.000001 0.000001 -0.000000 -0.000004 -0.000001 0.000001 -0.000002 0.009113 -0.002381 -0.024212 0.000001 0.000000 -0.000004 0.000001 -0.000003 -0.000001 -0.000000 -0.000000 0.000001 -0.032829 -0.025095 0.012286 0.000002 -0.000001 -0.000003 -0.000003 0.000003 -0.000003 0.000003 0.000005 -0.000000 -0.000001 0.000003 -0.000006 -0.039192 -0.011488 0.008390 0.000002 0.000001 -0.000000 0.000001 0.000000 -0.000003 0.000001 0.000002 -0.000000 0.000001 0.000003 -0.000004 -0.043421 0.002443 0.002845 0.000001 -0.000000 0.000002 -0.000001 0.000005 -0.000001 -0.000000 -0.000002 -0.000002 -0.000000 -0.000001 -0.000001 -0.000000 0.000000 -0.000000 -1.848206 -0.072381 -0.134665 42.544849 0.142009 -0.171068 13.528589 -0.262837 2.654752 0.000002 0.000000 0.000000 0.000003 -0.000000 0.000000 0.000003 -0.000000 0.000000 -0.038000 -0.085200 0.016200 -0.000002 -0.000000 -0.000000 -0.000000 0.000000 -0.000000 -1.810920 -0.072084 1.099567 27.295480 0.342604 6.041527 34.389975 0.536512 -5.420585 -0.000003 -0.000000 -0.000000 -0.000002 0.000000 0.000000 0.000002 -0.000000 0.000000 0.038000 -0.085200 0.016200 -0.000005 -0.000000 0.000000 
-0.005981 0.219000 0.004017 -6.300497 5.989285 88.158133 -0.000000 0.000000 0.000000 0.000001 0.000000 0.000000 0.000000 -0.000001 0.000000 -0.000000 -0.000001 0.000000 0.000924 0.155148 0.009274 -16.106138 0.049035 -14.561943 0.019937 0.078966 0.057518 -12.518048 6.950124 52.279456 0.177025 -0.020465 -0.095062 -19.427853 -19.885252 -0.281358 -0.410829 10.971505 53.764729 0.000002 0.000002 0.000001 0.021770 -0.038291 0.012954 0.000000 0.000001 -0.000004 -0.000001 -0.000000 0.000003 0.000003 -0.000000 0.000007 -0.000004 -0.000000 0.000002 -0.009090 -0.002348 -0.024223 -0.000000 0.000003 -0.000000 -0.000002 0.000000 0.000001 -0.000001 -0.000000 0.000003 0.032823 -0.025104 0.012281 -0.000000 -0.000002 0.000002 0.000002 0.000001 -0.000005 -0.000001 -0.000004 -0.000002 -0.000002 0.000003 0.000003 0.039230 -0.011402 0.008390 -0.000001 -0.000000 0.000004 0.000005 0.000000 -0.000000 -0.000001 0.000003 -0.000001 0.000003 -0.000003 0.000000 0.043417 0.002449 0.002889 -0.000001 0.000001 -0.000002 -0.000004 0.000001 -0.000002 0.000005 0.000006 -0.000001 -0.000005 -0.000001 0.000000 -0.016662 0.078957 0.057696 -16.475868 6.760989 -36.214155 -0.176972 -0.020537 -0.095144 -20.283548 11.092851 10.002706 9.834178 6.550815 -71.712191 0.000002 -0.000002 0.000002 -0.021773 -0.038278 0.012988 -0.000001 -0.000002 -0.000005 -0.000001 0.000001 -0.000001 -0.000000 0.000001 -0.000004 -0.000001 0.000002 0.000005 0.009114 -0.002381 -0.024211 -0.000000 -0.000001 -0.000003 -0.000001 0.000001 -0.000007 0.000000 -0.000000 -0.000004 -0.032828 -0.025095 0.012286 0.000001 -0.000001 -0.000003 0.000001 -0.000001 0.000006 -0.000001 0.000004 -0.000002 -0.000002 0.000005 -0.000006 -0.039191 -0.011488 0.008390 -0.000002 0.000001 -0.000004 0.000003 -0.000000 0.000000 0.000002 -0.000001 0.000002 -0.000003 0.000006 -0.000000 -0.043421 0.002443 0.002844 -0.000002 -0.000002 -0.000003 -0.000000 0.000003 -0.000002 -0.000000 -0.000003 0.000002 0.000001 0.000000 -0.000004 0.000000 0.000000 -0.000000 -1.829118 -0.180197 1.145531 44.998215 0.207883 0.589576 8.256007 -0.440363 4.449397 -0.000002 0.000000 -0.000000 -0.000003 -0.000000 -0.000000 -0.000002 -0.000000 0.000000 -0.038000 -0.085200 0.016200 0.000000 0.000000 -0.000000 0.000000 0.000000 0.000000 -1.795721 -0.179181 2.379814 32.283839 0.362468 6.619082 28.141278 0.208728 -2.105859 -0.000003 0.000000 0.000000 0.000002 0.000001 0.000000 0.000002 -0.000001 -0.000000 0.038000 -0.085200 0.016200 -0.000003 0.000000 -0.000000 
